<?xml version="1.0" encoding="utf-8"?>
<!-- Generator: Circuit Diagram, cdlibrary.dll 4.0.0.0 -->
<!DOCTYPE svg PUBLIC "-//W3C//DTD SVG 1.1//EN" "http://www.w3.org/Graphics/SVG/1.1/DTD/svg11.dtd">
<svg version="1.1" width="840" height="540" xmlns="http://www.w3.org/2000/svg">
	<line x1="640" y1="90" x2="650" y2="90" style="stroke:rgb(0, 0, 0);stroke-linecap:square;stroke-width:2" />
	<line x1="650" y1="90" x2="650" y2="90" style="stroke:rgb(0, 0, 0);stroke-linecap:square;stroke-width:2" />
	<line x1="650" y1="90" x2="650" y2="98" style="stroke:rgb(0, 0, 0);stroke-linecap:square;stroke-width:2" />
	<path d="M 642,98 L 658,98 L 650,106 L 642,98" style="fill-opacity:0;fill:rgb(0, 0, 0);stroke:rgb(0, 0, 0);stroke-linecap:square;stroke-width:2" />
	<line x1="590" y1="90" x2="640" y2="90" style="stroke:rgb(0, 0, 0);stroke-linecap:square;stroke-width:2" />
	<path d="M 622,90 M 622,82 L 622,98 M 622,90 L 607,98 L 607,82 L 622,90" style="fill-opacity:0;fill:rgb(0, 0, 0);stroke:rgb(0, 0, 0);stroke-linecap:square;stroke-width:2" />
	<path d="M 620,90 M 618,79 L 626,71 M 627,70 L 623,72 L 625,74 L 627,70 L 623,72" style="fill-opacity:0;fill:rgb(0, 0, 0);stroke:rgb(0, 0, 0);stroke-linecap:square;stroke-width:2" />
	<path d="M 620,90 M 624,86 L 632,78 M 633,77 L 629,79 L 631,81 L 633,77 L 629,79" style="fill-opacity:0;fill:rgb(0, 0, 0);stroke:rgb(0, 0, 0);stroke-linecap:square;stroke-width:2" />
	<line x1="520" y1="90" x2="535" y2="90" style="stroke:rgb(0, 0, 0);stroke-linecap:square;stroke-width:2" />
	<line x1="575" y1="90" x2="590" y2="90" style="stroke:rgb(0, 0, 0);stroke-linecap:square;stroke-width:2" />
	<rect x="535" y="82" width="40" height="16" style="fill-opacity:0;fill:rgb(0, 0, 0);stroke:rgb(0, 0, 0);stroke-width:2" />
	<text x="555" y="76" style="font-family:Arial;font-size:11px;text-anchor:middle" dominant-baseline="baseline" transform="rotate(0, 555, 76)">Built-In</text>
	<text x="600" y="110" style="font-family:Arial;font-size:11px;text-anchor:start" dominant-baseline="middle" transform="rotate(0, 600, 110)">(Blue)</text>
	<line x1="730" y1="500" x2="790" y2="500" style="stroke:rgb(0, 0, 0);stroke-linecap:square;stroke-width:2" />
	<line x1="790" y1="500" x2="790" y2="450" style="stroke:rgb(0, 0, 0);stroke-linecap:square;stroke-width:2" />
	<path d="M 790,450 L 804,450 L 790,472 L 776,450 L 790,450" style="fill-opacity:0;fill:rgb(0, 0, 0);stroke:rgb(0, 0, 0);stroke-linecap:square;stroke-width:2" />
	<path d="M 790,482 L 793,482 L 790,477 L 787,482 L 790,482" style="fill-opacity:1;fill:rgb(0, 0, 0);stroke:rgb(0, 0, 0);stroke-linecap:square;stroke-width:2" />
	<path d="M 790,486 L 793,486 L 790,491 L 787,486 L 790,486" style="fill-opacity:1;fill:rgb(0, 0, 0);stroke:rgb(0, 0, 0);stroke-linecap:square;stroke-width:2" />
	<line x1="130" y1="410" x2="210" y2="410" style="stroke:rgb(0, 0, 0);stroke-linecap:square;stroke-width:2" />
	<line x1="210" y1="370" x2="210" y2="410" style="stroke:rgb(0, 0, 0);stroke-linecap:square;stroke-width:2" />
	<line x1="170" y1="350" x2="180" y2="350" style="stroke:rgb(0, 0, 0);stroke-linecap:square;stroke-width:2" />
	<line x1="170" y1="350" x2="170" y2="358" style="stroke:rgb(0, 0, 0);stroke-linecap:square;stroke-width:2" />
	<path d="M 162,358 L 178,358 L 170,366 L 162,358" style="fill-opacity:0;fill:rgb(0, 0, 0);stroke:rgb(0, 0, 0);stroke-linecap:square;stroke-width:2" />
	<text x="262" y="270" style="font-family:Arial;font-size:12px;text-anchor:end" dominant-baseline="middle" transform="rotate(0, 262, 270)">SDA</text>
	<line x1="273" y1="270" x2="330" y2="270" style="stroke:rgb(0, 0, 0);stroke-linecap:square;stroke-width:2" />
	<ellipse cx="270" cy="270" rx="3" ry="3" style="fill-opacity:0;fill:rgb(0, 0, 0);stroke:rgb(0, 0, 0);stroke-width:2" />
	<text x="262" y="250" style="font-family:Arial;font-size:12px;text-anchor:end" dominant-baseline="middle" transform="rotate(0, 262, 250)">SCL</text>
	<line x1="273" y1="250" x2="330" y2="250" style="stroke:rgb(0, 0, 0);stroke-linecap:square;stroke-width:2" />
	<ellipse cx="270" cy="250" rx="3" ry="3" style="fill-opacity:0;fill:rgb(0, 0, 0);stroke:rgb(0, 0, 0);stroke-width:2" />
	<text x="262" y="180" style="font-family:Arial;font-size:12px;text-anchor:end" dominant-baseline="middle" transform="rotate(0, 262, 180)">SCL</text>
	<line x1="273" y1="180" x2="360" y2="180" style="stroke:rgb(0, 0, 0);stroke-linecap:square;stroke-width:2" />
	<ellipse cx="270" cy="180" rx="3" ry="3" style="fill-opacity:0;fill:rgb(0, 0, 0);stroke:rgb(0, 0, 0);stroke-width:2" />
	<text x="262" y="90" style="font-family:Arial;font-size:12px;text-anchor:end" dominant-baseline="middle" transform="rotate(0, 262, 90)">SDA</text>
	<line x1="273" y1="90" x2="340" y2="90" style="stroke:rgb(0, 0, 0);stroke-linecap:square;stroke-width:2" />
	<ellipse cx="270" cy="90" rx="3" ry="3" style="fill-opacity:0;fill:rgb(0, 0, 0);stroke:rgb(0, 0, 0);stroke-width:2" />
	<line x1="320" y1="70" x2="420" y2="70" style="stroke:rgb(0, 0, 0);stroke-linecap:square;stroke-width:2" />
	<line x1="320" y1="70" x2="320" y2="78" style="stroke:rgb(0, 0, 0);stroke-linecap:square;stroke-width:2" />
	<path d="M 312,78 L 328,78 L 320,86 L 312,78" style="fill-opacity:0;fill:rgb(0, 0, 0);stroke:rgb(0, 0, 0);stroke-linecap:square;stroke-width:2" />
	<line x1="320" y1="190" x2="410" y2="190" style="stroke:rgb(0, 0, 0);stroke-linecap:square;stroke-width:2" />
	<line x1="320" y1="190" x2="320" y2="198" style="stroke:rgb(0, 0, 0);stroke-linecap:square;stroke-width:2" />
	<path d="M 312,198 L 328,198 L 320,206 L 312,198" style="fill-opacity:0;fill:rgb(0, 0, 0);stroke:rgb(0, 0, 0);stroke-linecap:square;stroke-width:2" />
	<text x="395" y="160" style="font-family:Arial;font-size:12px;text-anchor:end" dominant-baseline="middle" transform="rotate(0, 395, 160)">+5V</text>
	<line x1="400" y1="160" x2="420" y2="160" style="stroke:rgb(0, 0, 0);stroke-linecap:square;stroke-width:2" />
	<text x="395" y="60" style="font-family:Arial;font-size:12px;text-anchor:end" dominant-baseline="middle" transform="rotate(0, 395, 60)">+5V</text>
	<line x1="400" y1="60" x2="410" y2="60" style="stroke:rgb(0, 0, 0);stroke-linecap:square;stroke-width:2" />
	<line x1="340" y1="90" x2="340" y2="170" style="stroke:rgb(0, 0, 0);stroke-linecap:square;stroke-width:2" />
	<line x1="340" y1="90" x2="410" y2="90" style="stroke:rgb(0, 0, 0);stroke-linecap:square;stroke-width:2" />
	<line x1="340" y1="170" x2="410" y2="170" style="stroke:rgb(0, 0, 0);stroke-linecap:square;stroke-width:2" />
	<line x1="360" y1="80" x2="360" y2="180" style="stroke:rgb(0, 0, 0);stroke-linecap:square;stroke-width:2" />
	<line x1="360" y1="80" x2="410" y2="80" style="stroke:rgb(0, 0, 0);stroke-linecap:square;stroke-width:2" />
	<line x1="360" y1="180" x2="410" y2="180" style="stroke:rgb(0, 0, 0);stroke-linecap:square;stroke-width:2" />
	<line x1="580" y1="300" x2="610" y2="300" style="stroke:rgb(0, 0, 0);stroke-linecap:square;stroke-width:2" />
	<line x1="580" y1="300" x2="580" y2="308" style="stroke:rgb(0, 0, 0);stroke-linecap:square;stroke-width:2" />
	<path d="M 572,308 L 588,308 L 580,316 L 572,308" style="fill-opacity:0;fill:rgb(0, 0, 0);stroke:rgb(0, 0, 0);stroke-linecap:square;stroke-width:2" />
	<text x="575" y="250" style="font-family:Arial;font-size:12px;text-anchor:end" dominant-baseline="middle" transform="rotate(0, 575, 250)">+5V</text>
	<line x1="580" y1="250" x2="610" y2="250" style="stroke:rgb(0, 0, 0);stroke-linecap:square;stroke-width:2" />
	<line x1="460" y1="290" x2="610" y2="290" style="stroke:rgb(0, 0, 0);stroke-linecap:square;stroke-width:2" />
	<line x1="460" y1="300" x2="530" y2="300" style="stroke:rgb(0, 0, 0);stroke-linecap:square;stroke-width:2" />
	<line x1="530" y1="270" x2="530" y2="300" style="stroke:rgb(0, 0, 0);stroke-linecap:square;stroke-width:2" />
	<line x1="530" y1="270" x2="610" y2="270" style="stroke:rgb(0, 0, 0);stroke-linecap:square;stroke-width:2" />
	<line x1="460" y1="380" x2="520" y2="380" style="stroke:rgb(0, 0, 0);stroke-linecap:square;stroke-width:2" />
	<line x1="520" y1="260" x2="520" y2="380" style="stroke:rgb(0, 0, 0);stroke-linecap:square;stroke-width:2" />
	<line x1="520" y1="260" x2="610" y2="260" style="stroke:rgb(0, 0, 0);stroke-linecap:square;stroke-width:2" />
	<line x1="460" y1="280" x2="610" y2="280" style="stroke:rgb(0, 0, 0);stroke-linecap:square;stroke-width:2" />
	<line x1="480" y1="480" x2="610" y2="480" style="stroke:rgb(0, 0, 0);stroke-linecap:square;stroke-width:2" />
	<line x1="480" y1="420" x2="480" y2="480" style="stroke:rgb(0, 0, 0);stroke-linecap:square;stroke-width:2" />
	<line x1="460" y1="420" x2="480" y2="420" style="stroke:rgb(0, 0, 0);stroke-linecap:square;stroke-width:2" />
	<line x1="460" y1="410" x2="490" y2="410" style="stroke:rgb(0, 0, 0);stroke-linecap:square;stroke-width:2" />
	<line x1="490" y1="410" x2="490" y2="470" style="stroke:rgb(0, 0, 0);stroke-linecap:square;stroke-width:2" />
	<line x1="490" y1="470" x2="610" y2="470" style="stroke:rgb(0, 0, 0);stroke-linecap:square;stroke-width:2" />
	<text x="575" y="450" style="font-family:Arial;font-size:12px;text-anchor:end" dominant-baseline="middle" transform="rotate(0, 575, 450)">+5V</text>
	<line x1="580" y1="450" x2="610" y2="450" style="stroke:rgb(0, 0, 0);stroke-linecap:square;stroke-width:2" />
	<line x1="530" y1="440" x2="620" y2="440" style="stroke:rgb(0, 0, 0);stroke-linecap:square;stroke-width:2" />
	<line x1="530" y1="440" x2="530" y2="448" style="stroke:rgb(0, 0, 0);stroke-linecap:square;stroke-width:2" />
	<path d="M 522,448 L 538,448 L 530,456 L 522,448" style="fill-opacity:0;fill:rgb(0, 0, 0);stroke:rgb(0, 0, 0);stroke-linecap:square;stroke-width:2" />
	<line x1="220" y1="380" x2="320" y2="380" style="stroke:rgb(0, 0, 0);stroke-linecap:square;stroke-width:2" />
	<line x1="220" y1="380" x2="220" y2="500" style="stroke:rgb(0, 0, 0);stroke-linecap:square;stroke-width:2" />
	<line x1="220" y1="500" x2="240" y2="500" style="stroke:rgb(0, 0, 0);stroke-linecap:square;stroke-width:2" />
	<line x1="190" y1="490" x2="240" y2="490" style="stroke:rgb(0, 0, 0);stroke-linecap:square;stroke-width:2" />
	<line x1="190" y1="490" x2="190" y2="498" style="stroke:rgb(0, 0, 0);stroke-linecap:square;stroke-width:2" />
	<path d="M 182,498 L 198,498 L 190,506 L 182,498" style="fill-opacity:0;fill:rgb(0, 0, 0);stroke:rgb(0, 0, 0);stroke-linecap:square;stroke-width:2" />
	<text x="185" y="480" style="font-family:Arial;font-size:12px;text-anchor:end" dominant-baseline="middle" transform="rotate(0, 185, 480)">+5V</text>
	<line x1="190" y1="480" x2="240" y2="480" style="stroke:rgb(0, 0, 0);stroke-linecap:square;stroke-width:2" />
	<line x1="130" y1="490" x2="130" y2="502" style="stroke:rgb(0, 0, 0);stroke-linecap:square;stroke-width:2" />
	<path d="M 122,502 L 138,502 L 130,510 L 122,502" style="fill-opacity:0;fill:rgb(0, 0, 0);stroke:rgb(0, 0, 0);stroke-linecap:square;stroke-width:2" />
	<text x="130" y="315" style="font-family:Arial;font-size:12px;text-anchor:middle" dominant-baseline="baseline" transform="rotate(0, 130, 315)">+5V</text>
	<line x1="130" y1="320" x2="130" y2="330" style="stroke:rgb(0, 0, 0);stroke-linecap:square;stroke-width:2" />
	<line x1="210" y1="370" x2="320" y2="370" style="stroke:rgb(0, 0, 0);stroke-linecap:square;stroke-width:2" />
	<text x="300" y="460" style="font-family:Arial;font-size:11px;text-anchor:middle" dominant-baseline="middle" transform="rotate(0, 300, 460)">MPX4115A  Pressure Sensor</text>
	<rect x="250" y="470" width="100" height="40" style="fill-opacity:0;fill:rgb(0, 0, 0);stroke:rgb(0, 0, 0);stroke-width:2" />
	<line x1="240" y1="480" x2="250" y2="480" style="stroke:rgb(0, 0, 0);stroke-linecap:square;stroke-width:2" />
	<text x="254" y="480" style="font-family:Arial;font-size:11px;text-anchor:start" dominant-baseline="middle" transform="rotate(0, 254, 480)">VCC (4)</text>
	<line x1="240" y1="490" x2="250" y2="490" style="stroke:rgb(0, 0, 0);stroke-linecap:square;stroke-width:2" />
	<text x="254" y="490" style="font-family:Arial;font-size:11px;text-anchor:start" dominant-baseline="middle" transform="rotate(0, 254, 490)">GND (5)</text>
	<line x1="240" y1="500" x2="250" y2="500" style="stroke:rgb(0, 0, 0);stroke-linecap:square;stroke-width:2" />
	<text x="254" y="500" style="font-family:Arial;font-size:11px;text-anchor:start" dominant-baseline="middle" transform="rotate(0, 254, 500)">V out (6 - notch)</text>
	<text x="670" y="420" style="font-family:Arial;font-size:11px;text-anchor:middle" dominant-baseline="middle" transform="rotate(0, 670, 420)">APC220 Transceiver</text>
	<rect x="620" y="430" width="100" height="80" style="fill-opacity:0;fill:rgb(0, 0, 0);stroke:rgb(0, 0, 0);stroke-width:2" />
	<line x1="610" y1="440" x2="620" y2="440" style="stroke:rgb(0, 0, 0);stroke-linecap:square;stroke-width:2" />
	<text x="624" y="440" style="font-family:Arial;font-size:11px;text-anchor:start" dominant-baseline="middle" transform="rotate(0, 624, 440)">GND</text>
	<line x1="610" y1="450" x2="620" y2="450" style="stroke:rgb(0, 0, 0);stroke-linecap:square;stroke-width:2" />
	<text x="624" y="450" style="font-family:Arial;font-size:11px;text-anchor:start" dominant-baseline="middle" transform="rotate(0, 624, 450)">VCC</text>
	<line x1="610" y1="460" x2="620" y2="460" style="stroke:rgb(0, 0, 0);stroke-linecap:square;stroke-width:2" />
	<text x="624" y="460" style="font-family:Arial;font-size:11px;text-anchor:start" dominant-baseline="middle" transform="rotate(0, 624, 460)">EN</text>
	<line x1="610" y1="470" x2="620" y2="470" style="stroke:rgb(0, 0, 0);stroke-linecap:square;stroke-width:2" />
	<text x="624" y="470" style="font-family:Arial;font-size:11px;text-anchor:start" dominant-baseline="middle" transform="rotate(0, 624, 470)">RXD</text>
	<line x1="610" y1="480" x2="620" y2="480" style="stroke:rgb(0, 0, 0);stroke-linecap:square;stroke-width:2" />
	<text x="624" y="480" style="font-family:Arial;font-size:11px;text-anchor:start" dominant-baseline="middle" transform="rotate(0, 624, 480)">TXD</text>
	<line x1="610" y1="490" x2="620" y2="490" style="stroke:rgb(0, 0, 0);stroke-linecap:square;stroke-width:2" />
	<text x="624" y="490" style="font-family:Arial;font-size:11px;text-anchor:start" dominant-baseline="middle" transform="rotate(0, 624, 490)">AUX</text>
	<line x1="610" y1="500" x2="620" y2="500" style="stroke:rgb(0, 0, 0);stroke-linecap:square;stroke-width:2" />
	<text x="624" y="500" style="font-family:Arial;font-size:11px;text-anchor:start" dominant-baseline="middle" transform="rotate(0, 624, 500)">SET</text>
	<line x1="720" y1="500" x2="730" y2="500" style="stroke:rgb(0, 0, 0);stroke-linecap:square;stroke-width:2" />
	<text x="716" y="500" style="font-family:Arial;font-size:11px;text-anchor:end" dominant-baseline="middle" transform="rotate(0, 716, 500)">(antennna)</text>
	<line x1="130" y1="410" x2="130" y2="430" style="stroke:rgb(0, 0, 0);stroke-linecap:square;stroke-width:2" />
	<line x1="130" y1="470" x2="130" y2="490" style="stroke:rgb(0, 0, 0);stroke-linecap:square;stroke-width:2" />
	<rect x="122" y="430" width="16" height="40" style="fill-opacity:0;fill:rgb(0, 0, 0);stroke:rgb(0, 0, 0);stroke-width:2" />
	<text x="106" y="450" style="font-family:Arial;font-size:11px;text-anchor:end" dominant-baseline="middle" transform="rotate(0, 106, 450)">NTC Thermistor</text>
	<path d="M 130,450 M 113,430 L 113,443 L 147,457" style="fill-opacity:0;fill:rgb(0, 0, 0);stroke:rgb(0, 0, 0);stroke-linecap:square;stroke-width:2" />
	<line x1="130" y1="330" x2="130" y2="350" style="stroke:rgb(0, 0, 0);stroke-linecap:square;stroke-width:2" />
	<line x1="130" y1="390" x2="130" y2="410" style="stroke:rgb(0, 0, 0);stroke-linecap:square;stroke-width:2" />
	<rect x="122" y="350" width="16" height="40" style="fill-opacity:0;fill:rgb(0, 0, 0);stroke:rgb(0, 0, 0);stroke-width:2" />
	<text x="116" y="370" style="font-family:Arial;font-size:11px;text-anchor:end" dominant-baseline="middle" transform="rotate(0, 116, 370)">10 kΩ</text>
	<line x1="250" y1="350" x2="271" y2="350" style="stroke:rgb(0, 0, 0);stroke-linecap:square;stroke-width:2" />
	<line x1="299" y1="350" x2="320" y2="350" style="stroke:rgb(0, 0, 0);stroke-linecap:square;stroke-width:2" />
	<ellipse cx="274" cy="350" rx="3" ry="3" style="fill-opacity:0;fill:rgb(0, 0, 0);stroke:rgb(0, 0, 0);stroke-width:2" />
	<ellipse cx="296" cy="350" rx="3" ry="3" style="fill-opacity:0;fill:rgb(0, 0, 0);stroke:rgb(0, 0, 0);stroke-width:2" />
	<line x1="277" y1="348" x2="294" y2="342" style="stroke:rgb(0, 0, 0);stroke-linecap:square;stroke-width:2" />
	<line x1="250" y1="350" x2="224" y2="350" style="stroke:rgb(0, 0, 0);stroke-linecap:square;stroke-width:2" />
	<line x1="224" y1="340" x2="224" y2="360" style="stroke:rgb(0, 0, 0);stroke-linecap:square;stroke-width:2" />
	<line x1="218" y1="345" x2="218" y2="355" style="stroke:rgb(0, 0, 0);stroke-linecap:square;stroke-width:2" />
	<line x1="212" y1="340" x2="212" y2="360" style="stroke:rgb(0, 0, 0);stroke-linecap:square;stroke-width:2" />
	<line x1="206" y1="345" x2="206" y2="355" style="stroke:rgb(0, 0, 0);stroke-linecap:square;stroke-width:2" />
	<line x1="206" y1="350" x2="180" y2="350" style="stroke:rgb(0, 0, 0);stroke-linecap:square;stroke-width:2" />
	<text x="215" y="338" style="font-family:Arial;font-size:12px;text-anchor:middle" dominant-baseline="baseline" transform="rotate(0, 215, 338)">+9V</text>
	<rect x="330" y="235" width="120" height="195" style="fill-opacity:0;fill:rgba(34, 139, 34, 255);stroke:rgba(34, 139, 34, 255);stroke-width:2" />
	<text x="366" y="265" style="fill: rgba(34, 139, 34, 255);font-family:Arial;font-size:11px;text-anchor:start" dominant-baseline="middle" transform="rotate(0, 366, 265)">ARDUINO</text>
	<text x="373" y="275" style="fill: rgba(34, 139, 34, 255);font-family:Arial;font-size:11px;text-anchor:start" dominant-baseline="middle" transform="rotate(0, 373, 275)">UNO r3</text>
	<line x1="320" y1="290" x2="330" y2="290" style="stroke:rgba(34, 139, 34, 255);stroke-linecap:square;stroke-width:2" />
	<line x1="320" y1="300" x2="330" y2="300" style="stroke:rgba(34, 139, 34, 255);stroke-linecap:square;stroke-width:2" />
	<line x1="320" y1="310" x2="330" y2="310" style="stroke:rgba(34, 139, 34, 255);stroke-linecap:square;stroke-width:2" />
	<line x1="320" y1="320" x2="330" y2="320" style="stroke:rgba(34, 139, 34, 255);stroke-linecap:square;stroke-width:2" />
	<line x1="320" y1="330" x2="330" y2="330" style="stroke:rgba(34, 139, 34, 255);stroke-linecap:square;stroke-width:2" />
	<line x1="320" y1="340" x2="330" y2="340" style="stroke:rgba(34, 139, 34, 255);stroke-linecap:square;stroke-width:2" />
	<line x1="320" y1="350" x2="330" y2="350" style="stroke:rgba(34, 139, 34, 255);stroke-linecap:square;stroke-width:2" />
	<line x1="320" y1="370" x2="330" y2="370" style="stroke:rgba(34, 139, 34, 255);stroke-linecap:square;stroke-width:2" />
	<line x1="320" y1="380" x2="330" y2="380" style="stroke:rgba(34, 139, 34, 255);stroke-linecap:square;stroke-width:2" />
	<line x1="320" y1="390" x2="330" y2="390" style="stroke:rgba(34, 139, 34, 255);stroke-linecap:square;stroke-width:2" />
	<line x1="320" y1="400" x2="330" y2="400" style="stroke:rgba(34, 139, 34, 255);stroke-linecap:square;stroke-width:2" />
	<line x1="320" y1="410" x2="330" y2="410" style="stroke:rgba(34, 139, 34, 255);stroke-linecap:square;stroke-width:2" />
	<line x1="320" y1="420" x2="330" y2="420" style="stroke:rgba(34, 139, 34, 255);stroke-linecap:square;stroke-width:2" />
	<line x1="450" y1="260" x2="460" y2="260" style="stroke:rgba(34, 139, 34, 255);stroke-linecap:square;stroke-width:2" />
	<line x1="450" y1="270" x2="460" y2="270" style="stroke:rgba(34, 139, 34, 255);stroke-linecap:square;stroke-width:2" />
	<line x1="450" y1="280" x2="460" y2="280" style="stroke:rgba(34, 139, 34, 255);stroke-linecap:square;stroke-width:2" />
	<line x1="450" y1="290" x2="460" y2="290" style="stroke:rgba(34, 139, 34, 255);stroke-linecap:square;stroke-width:2" />
	<line x1="450" y1="300" x2="460" y2="300" style="stroke:rgba(34, 139, 34, 255);stroke-linecap:square;stroke-width:2" />
	<line x1="450" y1="310" x2="460" y2="310" style="stroke:rgba(34, 139, 34, 255);stroke-linecap:square;stroke-width:2" />
	<line x1="450" y1="320" x2="460" y2="320" style="stroke:rgba(34, 139, 34, 255);stroke-linecap:square;stroke-width:2" />
	<line x1="450" y1="330" x2="460" y2="330" style="stroke:rgba(34, 139, 34, 255);stroke-linecap:square;stroke-width:2" />
	<line x1="450" y1="350" x2="460" y2="350" style="stroke:rgba(34, 139, 34, 255);stroke-linecap:square;stroke-width:2" />
	<line x1="450" y1="360" x2="460" y2="360" style="stroke:rgba(34, 139, 34, 255);stroke-linecap:square;stroke-width:2" />
	<line x1="450" y1="370" x2="460" y2="370" style="stroke:rgba(34, 139, 34, 255);stroke-linecap:square;stroke-width:2" />
	<line x1="450" y1="380" x2="460" y2="380" style="stroke:rgba(34, 139, 34, 255);stroke-linecap:square;stroke-width:2" />
	<line x1="450" y1="390" x2="460" y2="390" style="stroke:rgba(34, 139, 34, 255);stroke-linecap:square;stroke-width:2" />
	<line x1="450" y1="400" x2="460" y2="400" style="stroke:rgba(34, 139, 34, 255);stroke-linecap:square;stroke-width:2" />
	<line x1="450" y1="410" x2="460" y2="410" style="stroke:rgba(34, 139, 34, 255);stroke-linecap:square;stroke-width:2" />
	<line x1="450" y1="420" x2="460" y2="420" style="stroke:rgba(34, 139, 34, 255);stroke-linecap:square;stroke-width:2" />
	<text x="334" y="290" style="fill: rgba(34, 139, 34, 255);font-family:Arial;font-size:11px;text-anchor:start" dominant-baseline="middle" transform="rotate(0, 334, 290)">IOREF</text>
	<text x="334" y="300" style="fill: rgba(34, 139, 34, 255);font-family:Arial;font-size:11px;text-anchor:start" dominant-baseline="middle" transform="rotate(0, 334, 300)">RESET</text>
	<text x="334" y="310" style="fill: rgba(34, 139, 34, 255);font-family:Arial;font-size:11px;text-anchor:start" dominant-baseline="middle" transform="rotate(0, 334, 310)">3.3V</text>
	<text x="334" y="320" style="fill: rgba(34, 139, 34, 255);font-family:Arial;font-size:11px;text-anchor:start" dominant-baseline="middle" transform="rotate(0, 334, 320)">5V</text>
	<text x="334" y="330" style="fill: rgba(34, 139, 34, 255);font-family:Arial;font-size:11px;text-anchor:start" dominant-baseline="middle" transform="rotate(0, 334, 330)">GND</text>
	<text x="334" y="340" style="fill: rgba(34, 139, 34, 255);font-family:Arial;font-size:11px;text-anchor:start" dominant-baseline="middle" transform="rotate(0, 334, 340)">GND</text>
	<text x="334" y="350" style="fill: rgba(34, 139, 34, 255);font-family:Arial;font-size:11px;text-anchor:start" dominant-baseline="middle" transform="rotate(0, 334, 350)">Vin</text>
	<text x="334" y="370" style="fill: rgba(34, 139, 34, 255);font-family:Arial;font-size:11px;text-anchor:start" dominant-baseline="middle" transform="rotate(0, 334, 370)">A0</text>
	<text x="334" y="380" style="fill: rgba(34, 139, 34, 255);font-family:Arial;font-size:11px;text-anchor:start" dominant-baseline="middle" transform="rotate(0, 334, 380)">A1</text>
	<text x="334" y="390" style="fill: rgba(34, 139, 34, 255);font-family:Arial;font-size:11px;text-anchor:start" dominant-baseline="middle" transform="rotate(0, 334, 390)">A2</text>
	<text x="334" y="400" style="fill: rgba(34, 139, 34, 255);font-family:Arial;font-size:11px;text-anchor:start" dominant-baseline="middle" transform="rotate(0, 334, 400)">A3</text>
	<text x="334" y="410" style="fill: rgba(34, 139, 34, 255);font-family:Arial;font-size:11px;text-anchor:start" dominant-baseline="middle" transform="rotate(0, 334, 410)">A4</text>
	<text x="334" y="420" style="fill: rgba(34, 139, 34, 255);font-family:Arial;font-size:11px;text-anchor:start" dominant-baseline="middle" transform="rotate(0, 334, 420)">A5</text>
	<text x="446" y="260" style="fill: rgba(34, 139, 34, 255);font-family:Arial;font-size:11px;text-anchor:end" dominant-baseline="middle" transform="rotate(0, 446, 260)">AREF</text>
	<text x="446" y="270" style="fill: rgba(34, 139, 34, 255);font-family:Arial;font-size:11px;text-anchor:end" dominant-baseline="middle" transform="rotate(0, 446, 270)">GND</text>
	<text x="446" y="280" style="fill: rgba(34, 139, 34, 255);font-family:Arial;font-size:11px;text-anchor:end" dominant-baseline="middle" transform="rotate(0, 446, 280)">D13</text>
	<text x="446" y="290" style="fill: rgba(34, 139, 34, 255);font-family:Arial;font-size:11px;text-anchor:end" dominant-baseline="middle" transform="rotate(0, 446, 290)">D12</text>
	<text x="446" y="300" style="fill: rgba(34, 139, 34, 255);font-family:Arial;font-size:11px;text-anchor:end" dominant-baseline="middle" transform="rotate(0, 446, 300)">PWM D11</text>
	<text x="446" y="310" style="fill: rgba(34, 139, 34, 255);font-family:Arial;font-size:11px;text-anchor:end" dominant-baseline="middle" transform="rotate(0, 446, 310)">PWM D10</text>
	<text x="446" y="320" style="fill: rgba(34, 139, 34, 255);font-family:Arial;font-size:11px;text-anchor:end" dominant-baseline="middle" transform="rotate(0, 446, 320)">PWM   D9</text>
	<text x="446" y="330" style="fill: rgba(34, 139, 34, 255);font-family:Arial;font-size:11px;text-anchor:end" dominant-baseline="middle" transform="rotate(0, 446, 330)">D8</text>
	<text x="446" y="350" style="fill: rgba(34, 139, 34, 255);font-family:Arial;font-size:11px;text-anchor:end" dominant-baseline="middle" transform="rotate(0, 446, 350)">D7</text>
	<text x="446" y="360" style="fill: rgba(34, 139, 34, 255);font-family:Arial;font-size:11px;text-anchor:end" dominant-baseline="middle" transform="rotate(0, 446, 360)">PWM   D6</text>
	<text x="446" y="370" style="fill: rgba(34, 139, 34, 255);font-family:Arial;font-size:11px;text-anchor:end" dominant-baseline="middle" transform="rotate(0, 446, 370)">PWM   D5</text>
	<text x="446" y="380" style="fill: rgba(34, 139, 34, 255);font-family:Arial;font-size:11px;text-anchor:end" dominant-baseline="middle" transform="rotate(0, 446, 380)">D4</text>
	<text x="446" y="390" style="fill: rgba(34, 139, 34, 255);font-family:Arial;font-size:11px;text-anchor:end" dominant-baseline="middle" transform="rotate(0, 446, 390)">PWM   D3</text>
	<text x="446" y="400" style="fill: rgba(34, 139, 34, 255);font-family:Arial;font-size:11px;text-anchor:end" dominant-baseline="middle" transform="rotate(0, 446, 400)">D2</text>
	<text x="446" y="410" style="fill: rgba(34, 139, 34, 255);font-family:Arial;font-size:11px;text-anchor:end" dominant-baseline="middle" transform="rotate(0, 446, 410)">TX   D1</text>
	<text x="446" y="420" style="fill: rgba(34, 139, 34, 255);font-family:Arial;font-size:11px;text-anchor:end" dominant-baseline="middle" transform="rotate(0, 446, 420)">RX   D0</text>
	<path d="M 390,250 M 390,250 c 2,9 15,9 15,0 c 0,-9 -13,-9 -15,0" style="fill-opacity:0;fill:rgba(34, 139, 34, 255);stroke:rgba(34, 139, 34, 255);stroke-linecap:square;stroke-width:2" />
	<path d="M 390,250 M 390,250 c -2,-9 -15,-9 -15,0 c 0,9 13,9 15,0" style="fill-opacity:0;fill:rgba(34, 139, 34, 255);stroke:rgba(34, 139, 34, 255);stroke-linecap:square;stroke-width:2" />
	<line x1="396" y1="250" x2="400" y2="250" style="stroke:rgba(34, 139, 34, 255);stroke-linecap:square;stroke-width:2" />
	<line x1="398" y1="252" x2="398" y2="248" style="stroke:rgba(34, 139, 34, 255);stroke-linecap:square;stroke-width:2" />
	<line x1="384" y1="250" x2="380" y2="250" style="stroke:rgba(34, 139, 34, 255);stroke-linecap:square;stroke-width:2" />
	<text x="670" y="230" style="font-family:Arial;font-size:11px;text-anchor:middle" dominant-baseline="middle" transform="rotate(0, 670, 230)">Level-Shifting microSD Module</text>
	<rect x="620" y="240" width="100" height="70" style="fill-opacity:0;fill:rgb(0, 0, 0);stroke:rgb(0, 0, 0);stroke-width:2" />
	<line x1="610" y1="250" x2="620" y2="250" style="stroke:rgb(0, 0, 0);stroke-linecap:square;stroke-width:2" />
	<text x="624" y="250" style="font-family:Arial;font-size:11px;text-anchor:start" dominant-baseline="middle" transform="rotate(0, 624, 250)">VCC</text>
	<line x1="610" y1="260" x2="620" y2="260" style="stroke:rgb(0, 0, 0);stroke-linecap:square;stroke-width:2" />
	<text x="624" y="260" style="font-family:Arial;font-size:11px;text-anchor:start" dominant-baseline="middle" transform="rotate(0, 624, 260)">CS</text>
	<line x1="610" y1="270" x2="620" y2="270" style="stroke:rgb(0, 0, 0);stroke-linecap:square;stroke-width:2" />
	<text x="624" y="270" style="font-family:Arial;font-size:11px;text-anchor:start" dominant-baseline="middle" transform="rotate(0, 624, 270)">OI  / MOSI</text>
	<line x1="610" y1="280" x2="620" y2="280" style="stroke:rgb(0, 0, 0);stroke-linecap:square;stroke-width:2" />
	<text x="624" y="280" style="font-family:Arial;font-size:11px;text-anchor:start" dominant-baseline="middle" transform="rotate(0, 624, 280)">SCK</text>
	<line x1="610" y1="290" x2="620" y2="290" style="stroke:rgb(0, 0, 0);stroke-linecap:square;stroke-width:2" />
	<text x="624" y="290" style="font-family:Arial;font-size:11px;text-anchor:start" dominant-baseline="middle" transform="rotate(0, 624, 290)">IO /  MISO</text>
	<line x1="610" y1="300" x2="620" y2="300" style="stroke:rgb(0, 0, 0);stroke-linecap:square;stroke-width:2" />
	<text x="624" y="300" style="font-family:Arial;font-size:11px;text-anchor:start" dominant-baseline="middle" transform="rotate(0, 624, 300)">GND</text>
	<text x="470" y="40" style="fill: rgba(0, 0, 0, 255);font-family:Arial;font-size:11px;text-anchor:middle" dominant-baseline="middle" transform="rotate(0, 470, 40)">LIS3DH Accelerometer</text>
	<rect x="420" y="50" width="100" height="50" style="fill-opacity:0;fill:rgba(0, 0, 0, 255);stroke:rgba(0, 0, 0, 255);stroke-width:2" />
	<line x1="410" y1="60" x2="420" y2="60" style="stroke:rgba(0, 0, 0, 255);stroke-linecap:square;stroke-width:2" />
	<text x="424" y="60" style="fill: rgba(0, 0, 0, 255);font-family:Arial;font-size:11px;text-anchor:start" dominant-baseline="middle" transform="rotate(0, 424, 60)">Vin</text>
	<line x1="410" y1="70" x2="420" y2="70" style="stroke:rgba(0, 0, 0, 255);stroke-linecap:square;stroke-width:2" />
	<text x="424" y="70" style="fill: rgba(0, 0, 0, 255);font-family:Arial;font-size:11px;text-anchor:start" dominant-baseline="middle" transform="rotate(0, 424, 70)">GND</text>
	<line x1="410" y1="80" x2="420" y2="80" style="stroke:rgba(0, 0, 0, 255);stroke-linecap:square;stroke-width:2" />
	<text x="424" y="80" style="fill: rgba(0, 0, 0, 255);font-family:Arial;font-size:11px;text-anchor:start" dominant-baseline="middle" transform="rotate(0, 424, 80)">SCL</text>
	<line x1="410" y1="90" x2="420" y2="90" style="stroke:rgba(0, 0, 0, 255);stroke-linecap:square;stroke-width:2" />
	<text x="424" y="90" style="fill: rgba(0, 0, 0, 255);font-family:Arial;font-size:11px;text-anchor:start" dominant-baseline="middle" transform="rotate(0, 424, 90)">SDA</text>
	<text x="470" y="140" style="font-family:Arial;font-size:11px;text-anchor:middle" dominant-baseline="middle" transform="rotate(0, 470, 140)">BME 280</text>
	<rect x="420" y="150" width="100" height="50" style="fill-opacity:0;fill:rgb(0, 0, 0);stroke:rgb(0, 0, 0);stroke-width:2" />
	<line x1="410" y1="160" x2="420" y2="160" style="stroke:rgb(0, 0, 0);stroke-linecap:square;stroke-width:2" />
	<text x="424" y="160" style="font-family:Arial;font-size:11px;text-anchor:start" dominant-baseline="middle" transform="rotate(0, 424, 160)">5V</text>
	<line x1="410" y1="170" x2="420" y2="170" style="stroke:rgb(0, 0, 0);stroke-linecap:square;stroke-width:2" />
	<text x="424" y="170" style="font-family:Arial;font-size:11px;text-anchor:start" dominant-baseline="middle" transform="rotate(0, 424, 170)">SDA</text>
	<line x1="410" y1="180" x2="420" y2="180" style="stroke:rgb(0, 0, 0);stroke-linecap:square;stroke-width:2" />
	<text x="424" y="180" style="font-family:Arial;font-size:11px;text-anchor:start" dominant-baseline="middle" transform="rotate(0, 424, 180)">SCL</text>
	<line x1="410" y1="190" x2="420" y2="190" style="stroke:rgb(0, 0, 0);stroke-linecap:square;stroke-width:2" />
	<text x="424" y="190" style="font-family:Arial;font-size:11px;text-anchor:start" dominant-baseline="middle" transform="rotate(0, 424, 190)">GND</text>
	<ellipse cx="130" cy="410" rx="2" ry="2" style="fill-opacity:1;fill:rgb(0, 0, 0);stroke:rgb(0, 0, 0);stroke-width:2" />
	<ellipse cx="360" cy="180" rx="2" ry="2" style="fill-opacity:1;fill:rgb(0, 0, 0);stroke:rgb(0, 0, 0);stroke-width:2" />
	<ellipse cx="340" cy="90" rx="2" ry="2" style="fill-opacity:1;fill:rgb(0, 0, 0);stroke:rgb(0, 0, 0);stroke-width:2" />
</svg>